<svg width="42" height="32" viewBox="0 0 212 160" fill="none" xmlns="http://www.w3.org/2000/svg"><path d="M201.113 149.994H10.449C4.676 149.994 0 145.068 0 139.011V20.977C0 14.932 4.676 10 10.449 10h190.664c5.773 0 10.438 4.926 10.438 10.977v118.029c-.006 6.062-4.67 10.988-10.438 10.988z" fill="url(#paint0_linear)"/><path d="M0 128.614h211.545v3.619H0v-3.619z" fill="url(#paint1_linear)"/><path d="M3.007 146.71H208.54a11.062 11.062 0 002.256-3.619H.762a11.062 11.062 0 002.245 3.619z" fill="url(#paint2_linear)"/><path d="M0 139.011c0 .154.011.313.023.466h211.522l.006-.466v-3.164H0v3.164z" fill="url(#paint3_linear)"/><path d="M0 114.131h211.545v3.619H0v-3.619z" fill="url(#paint4_linear)"/><path d="M0 106.881h211.545v3.631H0v-3.631z" fill="url(#paint5_linear)"/><path d="M0 99.636h211.545v3.631H0v-3.63z" fill="url(#paint6_linear)"/><path d="M0 92.403h211.545v3.62H0v-3.62z" fill="url(#paint7_linear)"/><path d="M0 85.154h211.545v3.63H0v-3.63z" fill="url(#paint8_linear)"/><path d="M0 77.91h211.545v3.63H0v-3.63z" fill="url(#paint9_linear)"/><path d="M0 70.67h211.545v3.62H0v-3.62z" fill="url(#paint10_linear)"/><path d="M0 63.426h211.545v3.62H0v-3.62z" fill="url(#paint11_linear)"/><path d="M0 56.193h211.545v3.62H0v-3.62z" fill="url(#paint12_linear)"/><path d="M0 48.943h211.545v3.631H0v-3.63z" fill="url(#paint13_linear)"/><path d="M0 41.71h211.545v3.62H0v-3.62z" fill="url(#paint14_linear)"/><path d="M0 34.46h211.545v3.62H0v-3.62z" fill="url(#paint15_linear)"/><path d="M0 27.216h211.545v3.63H0v-3.63z" fill="url(#paint16_linear)"/><path d="M211.5 19.983H.062a8.34 8.34 0 00-.062.994v2.63h211.545v-2.63c0-.33-.005-.665-.045-.994z" fill="url(#paint17_linear)"/><path d="M207.984 12.733H3.575a11.07 11.07 0 00-2.585 3.62h209.597a11.552 11.552 0 00-2.603-3.62z" fill="url(#paint18_linear)"/><path d="M0 121.364h211.545v3.619H0v-3.619z" fill="url(#paint19_linear)"/><path d="M181.881 24.262l.551.142a1.958 1.958 0 01-.613 1.073 1.734 1.734 0 01-1.108.364 1.773 1.773 0 01-1.08-.29 1.646 1.646 0 01-.642-.824 2.978 2.978 0 01-.216-1.153c0-.455.074-.84.25-1.176.146-.323.391-.592.699-.767a2.001 2.001 0 011.006-.267c.42 0 .778.113 1.057.335.296.235.504.564.59.932l-.556.136c-.114-.312-.233-.545-.421-.676-.182-.153-.403-.21-.693-.21a1.26 1.26 0 00-.801.233 1.374 1.374 0 00-.455.642 3.04 3.04 0 00.023 1.784c.084.257.26.473.494.608.207.139.45.212.699.21.288.005.569-.089.796-.267.222-.226.369-.516.42-.83zm1.233 1.522v-4.33h1.841c.369 0 .648.035.852.12.193.08.352.224.449.41.125.194.19.421.188.652 0 .302-.114.557-.301.768-.177.21-.495.346-.893.409.13.047.249.119.353.21.169.172.318.362.443.568l.739 1.188h-.699l-.551-.892c-.16-.268-.302-.466-.387-.608a2.01 2.01 0 00-.284-.279c-.096-.057-.17-.102-.261-.12a1.65 1.65 0 00-.301-.022h-.642v1.932h-.546v-.006zm.546-2.42h1.176c.25 0 .46-.023.596-.08a.71.71 0 00.33-.255.891.891 0 00.091-.387.653.653 0 00-.205-.511c-.136-.13-.352-.199-.67-.199h-1.313v1.432h-.005zm3.642 2.42v-4.33h3.011v.523h-2.449v1.307h2.296v.512h-2.296v1.477h2.534v.511h-3.096zm1.136-4.596l.386-.824h.659l-.619.824h-.426zm2.733 4.596v-4.33h1.42c.313 0 .574.023.739.058.226.052.434.164.602.323.228.177.381.432.506.733.099.336.151.684.153 1.034a2.91 2.91 0 01-.119.875 1.993 1.993 0 01-.29.631c-.097.146-.22.273-.363.375-.152.1-.319.175-.495.222a2.976 2.976 0 01-.676.08h-1.477zm.557-.511h.863a2.43 2.43 0 00.654-.08c.136-.057.263-.136.375-.233.13-.162.228-.347.29-.545.086-.268.129-.548.125-.83a2.223 2.223 0 00-.228-1.056 1.108 1.108 0 00-.522-.478 1.889 1.889 0 00-.711-.08h-.852v3.302h.006zm3.716.511v-4.33h.545v4.33h-.545zm2.579 0v-3.807h-1.375v-.522h3.29v.522h-1.358v3.807h-.557zm2.307-2.108c0-.721.193-1.278.574-1.687.381-.41.841-.608 1.426-.608a1.839 1.839 0 011.739 1.09c.159.336.244.722.244 1.154 0 .432-.085.83-.267 1.176-.15.325-.391.6-.693.79a2.131 2.131 0 01-1.023.267 1.926 1.926 0 01-1.75-1.09 2.56 2.56 0 01-.25-1.092zm.574.012c0 .522.131.931.415 1.233a1.243 1.243 0 001 .443 1.32 1.32 0 001.028-.455c.283-.368.425-.826.398-1.29a2.46 2.46 0 00-.165-.909 1.352 1.352 0 00-.506-.619 1.253 1.253 0 00-.744-.21 1.315 1.315 0 00-1 .42c-.284.267-.426.733-.426 1.387z" fill="#62551A"/><path d="M178.608 10.029H10.5c-5.795 0-10.5 4.88-10.5 10.903v34.17C18.892 64.455 42.71 70.04 68.562 70.04c55.921 0 102.205-26.08 110.046-60.011z" fill="#EAD224"/><path d="M30.171 38.557c-2.949 0-5.227-.756-6.83-2.262-1.607-1.51-2.408-3.664-2.408-6.426 0-2.761.818-4.903 2.448-6.426 1.648-1.534 3.96-2.284 6.92-2.284 1.7 0 3.7.233 5.995.733v2.199c-2.602-.79-4.63-1.182-6.04-1.182-2.04 0-3.653.608-4.778 1.83-1.125 1.21-1.693 2.931-1.693 5.147 0 2.12.613 3.773 1.818 5.006 1.182 1.222 2.83 1.818 4.932 1.818 1.79 0 3.704-.477 5.761-1.443v2.017a14.546 14.546 0 01-6.125 1.273zm17.682 0c-2.636 0-4.739-.801-6.346-2.398-1.603-1.585-2.398-3.693-2.398-6.312 0-2.642.795-4.739 2.403-6.324 1.62-1.591 3.773-2.364 6.46-2.364 2.682 0 4.83.779 6.45 2.364 1.613 1.574 2.425 3.67 2.425 6.3 0 2.677-.812 4.808-2.426 6.37-1.62 1.574-3.8 2.364-6.568 2.364zm.051-1.762c1.932 0 3.438-.596 4.489-1.829 1.062-1.222 1.596-2.943 1.596-5.16 0-2.164-.54-3.851-1.607-5.062-1.052-1.221-2.529-1.835-4.41-1.835-1.892 0-3.358.608-4.426 1.83-1.068 1.221-1.585 2.92-1.585 5.09 0 2.154.517 3.864 1.574 5.103 1.045 1.25 2.5 1.863 4.37 1.863zm12.722 1.341V21.568h6.295c1.887 0 3.41.176 4.563.546 1.159.375 2.165.988 2.994 1.863 1.347 1.387 2.017 3.216 2.017 5.483 0 2.762-.83 4.892-2.494 6.415-1.665 1.511-4.017 2.261-7.04 2.261h-6.335zm2.687-1.755h3.455c2.454 0 4.193-.568 5.227-1.733 1.091-1.233 1.653-2.887 1.653-4.96 0-1.955-.55-3.472-1.636-4.586a4.807 4.807 0 00-2.37-1.397c-.908-.267-2.26-.375-4.113-.375h-2.221v13.05h.005zm16.983 1.755V21.568h10.602v1.767h-7.926v5.307h6.637v1.744h-6.637v6.006h8.46v1.756H80.297v-.012zm14.227 0V21.568h2.642l9.546 12.796V21.568h2.312v16.568h-2.619l-9.568-12.795v12.795h-2.313zm23.12.42c-1.267 0-2.892-.232-4.892-.732v-2.318c2.147.852 3.897 1.29 5.295 1.29 1.051 0 1.904-.233 2.546-.722a2.295 2.295 0 00.971-1.92 2.35 2.35 0 00-.642-1.654c-.42-.443-1.21-.966-2.341-1.523l-1.318-.653c-1.608-.824-2.739-1.574-3.392-2.284a3.534 3.534 0 01-1.011-2.494 3.854 3.854 0 011.591-3.154c1.056-.824 2.409-1.233 4.051-1.233 1.46 0 3.005.21 4.63.63v2.154c-2.005-.687-3.494-1.034-4.471-1.034a3.899 3.899 0 00-2.313.642c-.613.443-.909.989-.909 1.642 0 .557.216 1.046.671 1.455.437.443 1.255.943 2.426 1.54l1.363.653c1.642.83 2.79 1.597 3.438 2.307.643.72.994 1.654.983 2.62a4.06 4.06 0 01-1.841 3.47c-1.21.887-2.83 1.319-4.835 1.319zm20.045-6.755l-3.25-7.147-3.227 7.147h6.477zm2.841 6.335l-2.062-4.585h-8.04l-2.091 4.585h-2.489l7.517-16.568h2.676l7.415 16.568h-2.926z" fill="#211E1E"/><path d="M15.142 43.284h131.051v1.432H15.142v-1.432z" fill="#fff"/><path d="M46.995 57.057c-1.369 0-2.409-.267-3.147-.813a2.67 2.67 0 01-1.103-2.295 2.671 2.671 0 011.131-2.296c.756-.534 1.796-.812 3.16-.812.778 0 1.698.09 2.743.267v.778a13.134 13.134 0 00-2.755-.42c-.943 0-1.682.221-2.193.665-.523.431-.767 1.045-.767 1.83 0 .766.278 1.352.824 1.795a3.574 3.574 0 002.255.642c.83 0 1.716-.176 2.654-.523v.722a8.014 8.014 0 01-2.802.46zm4.603-.142V51h2.625c.835 0 1.483.12 1.92.364.432.255.665.608.665 1.096 0 .79-.58 1.341-1.761 1.665l2.909 2.784h-1.523l-2.466-2.506h-1.153v2.506h-1.216v.006zm1.216-3.13h.386c1.557 0 2.347-.421 2.347-1.257 0-.596-.66-.909-1.96-.909h-.773v2.165zm6.386 3.13V51h4.852v.62h-3.625v1.897h3.051v.608h-3.05v2.165h3.897v.62H59.2v.005zm1.557-6.415l1.415-1.29h1.352L61.62 50.5h-.863zm4.971 6.415V51h2.898c.864 0 1.557.057 2.097.188.5.122.968.348 1.375.664a2.433 2.433 0 01.915 1.955 2.603 2.603 0 01-1.154 2.284c-.756.545-1.835.824-3.21.824h-2.92zm1.233-.625h1.586c1.125 0 1.931-.21 2.397-.63a2.234 2.234 0 00.75-1.774 2.006 2.006 0 00-.733-1.63 2.67 2.67 0 00-1.09-.5 9.612 9.612 0 00-1.876-.131h-1.034v4.665zm7.779.625V51h1.227v5.915H74.74zm5.545 0v-5.296h-3.09V51h7.414v.62h-3.085v5.295h-1.239zm9.051.142c-1.21 0-2.176-.279-2.915-.852a2.675 2.675 0 01-1.096-2.25c0-.944.352-1.688 1.12-2.262.715-.568 1.71-.84 2.942-.84 1.228 0 2.222.278 2.955.84.75.568 1.114 1.318 1.114 2.25a2.683 2.683 0 01-1.114 2.273c-.739.562-1.75.84-3.006.84zm.017-.62a3.012 3.012 0 002.063-.664c.489-.432.727-1.034.727-1.841a2.265 2.265 0 00-.727-1.796 2.898 2.898 0 00-2.029-.664 2.886 2.886 0 00-2.022.664c-.478.432-.728 1.034-.728 1.807 0 .773.24 1.387.728 1.83.477.431 1.136.664 1.988.664zm9.648.478V51h4.841v.62h-3.614v1.988h3.051v.608h-3.051v2.699h-1.227zm10.852-2.267l-1.5-2.551-1.46 2.55h2.96zm1.307 2.267l-.949-1.642h-3.682l-.954 1.642h-1.136L107.87 51h1.228l3.386 5.915h-1.324zm-3.534-6.415l1.398-1.29h1.352l-1.898 1.29h-.852zm9.864 6.557c-1.358 0-2.409-.267-3.137-.813a2.635 2.635 0 01-1.096-2.295c0-.989.363-1.756 1.113-2.296.75-.534 1.802-.812 3.171-.812.784 0 1.693.09 2.738.267v.778a12.97 12.97 0 00-2.75-.42c-.948 0-1.676.221-2.198.665a2.255 2.255 0 00-.773 1.83c0 .766.273 1.352.829 1.795.546.431 1.296.642 2.262.642.824 0 1.699-.176 2.642-.523v.722a8.015 8.015 0 01-2.801.46zm4.591-.142V51h1.227v5.915h-1.227zm3.483 0V51h1.227v5.295h3.915v.62h-5.142z" fill="#01539C"/><path d="M13.813 127.068v-5.591h.534v4.926h1.926v.665h-2.46zm5.937-5.591h.528v3.239c0 .534-.062.977-.136 1.329a1.72 1.72 0 01-.506.824 1.34 1.34 0 01-.909.301 1.333 1.333 0 01-1.159-.545c-.261-.364-.38-1-.38-1.909v-3.239h.51v3.227c0 .512.035.875.114 1.097.074.233.171.398.324.523a.96.96 0 00.574.176c.358 0 .63-.12.796-.375.165-.233.261-.71.261-1.421v-3.227h-.017zm1.767 5.591v-5.591h.5v5.591h-.5zm1.517-1.784l.489-.068c.022.25.087.494.193.721a.927.927 0 00.386.409c.17.103.37.154.585.154.313 0 .552-.091.71-.267a.949.949 0 00.268-.688.872.872 0 00-.102-.432.787.787 0 00-.279-.301c-.125-.079-.392-.187-.812-.346a2.665 2.665 0 01-.807-.387 1.367 1.367 0 01-.352-.477 1.913 1.913 0 01-.131-.682c0-.432.12-.824.386-1.108a1.265 1.265 0 011.006-.431 1.388 1.388 0 011.278.801c.114.244.188.545.2.875l-.512.056a1.522 1.522 0 00-.273-.812c-.16-.176-.38-.256-.676-.256-.301 0-.517.068-.676.222a.815.815 0 00-.233.608c0 .21.057.386.176.511.223.185.486.317.767.387.386.119.653.233.824.312.228.139.411.34.528.58.125.233.188.5.188.823 0 .324-.063.62-.2.875a1.36 1.36 0 01-.516.608 1.549 1.549 0 01-.796.199 1.414 1.414 0 01-1.17-.522 2.03 2.03 0 01-.449-1.364zm8.699-.182l.528.188c-.119.63-.318 1.096-.602 1.409a1.399 1.399 0 01-1.062.466 1.472 1.472 0 01-.927-.313 2.08 2.08 0 01-.63-.989 4.739 4.739 0 01-.25-1.63c0-.608.08-1.142.25-1.563.125-.378.356-.713.665-.966a1.5 1.5 0 01.943-.335c.375 0 .687.142.971.421.284.278.466.687.58 1.21l-.511.176c-.165-.778-.54-1.176-1.052-1.176a1.06 1.06 0 00-.681.244 1.481 1.481 0 00-.46.733 3.735 3.735 0 00-.166 1.256c0 .767.114 1.341.347 1.721.227.375.54.569.92.569a.9.9 0 00.728-.347 2.21 2.21 0 00.409-1.074zm1.528 1.966v-.778h.574v.778h-.574zm3.506 0v-5.591h1.472c.3 0 .54.057.71.165.176.114.324.278.426.5a1.654 1.654 0 01.017 1.454 1.05 1.05 0 01-.392.489c.227.114.398.267.545.511.125.233.21.512.21.853a2.1 2.1 0 01-.187.886c-.102.229-.27.423-.483.557a1.602 1.602 0 01-.824.176h-1.494zm.523-3.239h.84a1.57 1.57 0 00.478-.056.598.598 0 00.312-.268c.079-.158.114-.334.103-.511a1.16 1.16 0 00-.091-.5.64.64 0 00-.267-.29 2.22 2.22 0 00-.591-.068h-.784v1.693zm0 2.574h.971c.162.014.326-.01.478-.068a.705.705 0 00.346-.324c.077-.179.112-.373.102-.568a1.312 1.312 0 00-.096-.545.77.77 0 00-.307-.313c-.125-.08-.312-.114-.585-.114h-.91v1.932zm3.29-2.051c0-.966.187-1.687.528-2.21.375-.511.812-.767 1.34-.767.353 0 .671.113.955.346.29.233.5.569.677 1.012a4.33 4.33 0 01.233 1.54 3.953 3.953 0 01-.46 2.028c-.364.579-.836.864-1.404.864s-1.04-.29-1.386-.887a3.635 3.635 0 01-.483-1.926zm.522 0a2.84 2.84 0 00.387 1.608c.267.375.58.568.954.568.387 0 .693-.187.966-.568a3.097 3.097 0 00.38-1.699 3.918 3.918 0 00-.204-1.29c-.108-.289-.25-.522-.46-.698-.21-.177-.42-.267-.682-.267-.38 0-.704.198-.966.579a3.323 3.323 0 00-.375 1.767zm5.176 2.716v-4.926h-1.306v-.665h3.113v.665h-1.29v4.926h-.517zm2.614 0v-5.591h2.852v.665h-2.318v1.71h2.176v.653h-2.176v1.898h2.404v.665h-2.938zm3.932 0v-5.591h1.744c.347 0 .625.057.813.154.17.102.318.278.409.534.123.259.185.542.182.829a1.63 1.63 0 01-.302 1.034 1.255 1.255 0 01-.818.5c.13.08.24.187.324.313.163.22.3.458.41.71l.698 1.523h-.653l-.529-1.154a8.514 8.514 0 00-.454-.932.998.998 0 00-.301-.312.826.826 0 00-.41-.08h-.59v2.478h-.523v-.006zm.523-3.131h1.119a1.1 1.1 0 00.551-.102.628.628 0 00.29-.312c.085-.161.128-.341.125-.523a1.112 1.112 0 00-.21-.665.828.828 0 00-.625-.244h-1.25v1.846zm3.568.415c0-.966.17-1.687.545-2.21.352-.511.807-.767 1.324-.767.358 0 .665.113.949.346.29.233.511.569.693 1.012.17.495.25 1.016.239 1.54a3.84 3.84 0 01-.477 2.028c-.364.579-.813.864-1.404.864-.59 0-1.045-.29-1.392-.887a3.58 3.58 0 01-.477-1.926zm.54 0c0 .699.113 1.233.375 1.608.278.375.59.568.948.568.381 0 .694-.187.955-.568.273-.386.386-.954.386-1.699a3.79 3.79 0 00-.187-1.29 1.74 1.74 0 00-.477-.698 1.002 1.002 0 00-.665-.267c-.38 0-.705.198-.966.579-.261.381-.37.966-.37 1.767zm5.221 2.716l1.506-5.591h.562l1.614 5.591h-.597l-.46-1.699H63.66l-.42 1.699h-.563zm1.12-2.295h1.346l-.415-1.552c-.13-.465-.21-.852-.278-1.153a10.44 10.44 0 01-.21 1.068l-.444 1.637zm3.323 2.295v-.778h.546v.778h-.546z" fill="#5D5326"/><path d="M174.858 127.136h-.711v-4.647c-.176.142-.397.323-.676.477a3.61 3.61 0 01-.738.375v-.699a4.484 4.484 0 001.056-.699c.248-.228.457-.495.62-.79h.449v5.983zm1.988-2.943c0-.71.074-1.278.216-1.699.1-.384.31-.731.602-1a1.65 1.65 0 011.069-.346c.301 0 .579.056.818.187.227.119.42.313.574.557.153.244.272.534.363.886.08.347.131.824.131 1.409a5.423 5.423 0 01-.227 1.699 2.17 2.17 0 01-.614.989c-.295.237-.667.36-1.045.347a1.63 1.63 0 01-1.336-.608c-.369-.5-.551-1.307-.551-2.421zm.722 0c0 .977.114 1.619.352 1.943.216.336.477.5.824.5.318 0 .591-.164.818-.5.222-.324.33-.977.33-1.943 0-.989-.108-1.631-.33-1.954-.227-.324-.5-.478-.829-.478a.911.911 0 00-.79.409c-.256.381-.375 1.046-.375 2.023zm3.608 3.034l1.659-6.159h.585l-1.67 6.159h-.574zm5.415-.091h-.728v-4.647c-.2.184-.421.345-.659.477a3.76 3.76 0 01-.744.375v-.699c.38-.179.73-.415 1.04-.699.26-.217.473-.486.625-.79h.466v5.983zm4.238 0v-1.443h-2.488v-.653l2.636-3.864h.602v3.864h.756v.653h-.756v1.443h-.75zm0-2.096v-2.688l-1.795 2.688h1.795zm-31.091 1.619l-.841-2.199h.307l.574 1.597c.042.119.076.24.102.363.035-.119.091-.244.131-.363l.58-1.597h.295l-.852 2.199h-.296zm1.455 0v-2.199h1.557v.256h-1.267v.676h1.187v.256h-1.187v.755h1.324v.256h-1.614zm2.074 0v-2.199h.284l1.136 1.722v-1.722h.267v2.199h-.295l-1.131-1.722v1.722h-.261zm3.761-.767l.296.08c-.063.232-.159.42-.324.545a.905.905 0 01-.574.187.983.983 0 01-.563-.153.772.772 0 01-.341-.409 1.467 1.467 0 01.018-1.188.82.82 0 01.357-.386.916.916 0 01.523-.131c.216 0 .398.046.551.165.154.12.262.288.307.477l-.284.057a.6.6 0 00-.21-.346.622.622 0 00-.358-.114.762.762 0 00-.415.119.6.6 0 00-.233.324 1.439 1.439 0 00-.079.421c0 .199.039.352.091.5a.497.497 0 00.25.312.611.611 0 00.352.102c.17 0 .312-.045.42-.13a.711.711 0 00.216-.432zm.705.767v-2.199h1.574v.256h-1.262v.676h1.176v.256h-1.176v.755h1.301v.256h-1.613z" fill="#514717"/><path d="M13.84 115.33l1.149-.12c.04.578.251 1.13.607 1.585.313.347.671.512 1.074.512.529 0 .972-.244 1.353-.722a3.358 3.358 0 00.545-2.017 2.91 2.91 0 00-.534-1.852 1.728 1.728 0 00-1.072-.623 1.727 1.727 0 00-1.212.259 1.952 1.952 0 00-.688.801l-1.028-.164.852-5.739h4.42v1.307h-3.533l-.478 2.994a2.479 2.479 0 011.676-.699 2.505 2.505 0 011.938.978c.557.653.835 1.539.835 2.642 0 1.102-.284 2.028-.835 2.806a2.576 2.576 0 01-2.21 1.165 2.61 2.61 0 01-1.955-.824 3.727 3.727 0 01-.903-2.289zm7.075.34l1.05-.119c.16 1.176.654 1.756 1.484 1.756.362 0 .712-.133.983-.375.375-.378.644-.848.778-1.364.193-.653.29-1.42.29-2.295v-.279a2.798 2.798 0 01-.91 1.086c-.342.242-.75.376-1.17.386-.733 0-1.335-.324-1.869-.977-.528-.654-.795-1.54-.795-2.676 0-1.177.278-2.086.83-2.75a2.406 2.406 0 013.523-.455c.47.375.828.932 1.095 1.665s.392 1.773.392 3.153c0 1.534-.13 2.727-.409 3.574-.278.847-.676 1.466-1.142 1.864a2.549 2.549 0 01-1.608.579 2.357 2.357 0 01-1.716-.71 3.297 3.297 0 01-.806-2.063zm4.46-4.937c0-.79-.154-1.42-.506-1.864-.352-.466-.738-.698-1.204-.698-.455 0-.864.244-1.239.732a3.194 3.194 0 00-.568 1.944 2.61 2.61 0 00.54 1.755 1.547 1.547 0 001.244.654 1.52 1.52 0 001.244-.654 3.049 3.049 0 00.489-1.869zm2.256 2.011c0-1.875.26-3.295.76-4.25.478-.966 1.206-1.454 2.166-1.454.846 0 1.517.386 1.988 1.176.608.943.898 2.455.898 4.528 0 1.864-.25 3.273-.716 4.239-.511.977-1.221 1.455-2.182 1.455-.852 0-1.54-.421-2.096-1.29-.529-.841-.818-2.307-.818-4.404zm1.136 0c0 1.807.159 3.029.5 3.654.335.608.778.909 1.295.909.517 0 .932-.313 1.256-.921.335-.63.517-1.84.517-3.642 0-1.806-.182-3.028-.517-3.653-.335-.608-.773-.92-1.324-.92-.477 0-.892.323-1.221.943-.341.619-.506 1.829-.506 3.63zm5.858-4.198v-1.307h5.767v1.057a16.24 16.24 0 00-2.261 4.482A19.232 19.232 0 0037 118.25h-1.136c.11-2.349.64-4.66 1.562-6.824.483-1.119 1.006-2.085 1.551-2.875h-4.352v-.005zm10.937 9.698h-1.08v-8.733a6.733 6.733 0 01-2.181 1.654v-1.318a6.989 6.989 0 001.585-1.307 4.72 4.72 0 00.977-1.5h.7v11.204zm8.535-1.318v1.318h-5.87a3.83 3.83 0 01.472-1.784c.34-.665.932-1.443 1.807-2.341 1.017-1.034 1.67-1.852 2-2.431a3.28 3.28 0 00.465-1.586 1.949 1.949 0 00-.477-1.386 1.583 1.583 0 00-1.193-.545 1.507 1.507 0 00-1.25.59c-.34.375-.494.932-.494 1.654l-1.114-.142c.08-1.068.375-1.875.88-2.421a2.66 2.66 0 012.012-.812c.904 0 1.591.324 2.057.943a3.61 3.61 0 01.687 2.142 3.977 3.977 0 01-.55 2.051 13.988 13.988 0 01-2.069 2.608c-.447.441-.869.908-1.261 1.398a4.95 4.95 0 00-.477.744h4.374zm1.164-4.182c0-1.875.239-3.295.739-4.25.506-.966 1.204-1.454 2.165-1.454.846 0 1.522.386 2.011 1.176.585.943.88 2.455.88 4.528 0 1.864-.238 3.273-.727 4.239-.494.977-1.21 1.455-2.17 1.455-.852 0-1.551-.421-2.09-1.29-.535-.841-.808-2.307-.808-4.404zm1.13 0c0 1.807.154 3.029.495 3.654.33.608.762.909 1.284.909.523 0 .926-.313 1.256-.921.347-.63.517-1.84.517-3.642 0-1.806-.17-3.028-.517-3.653-.34-.608-.773-.92-1.301-.92-.5 0-.915.323-1.244.943-.33.619-.49 1.829-.49 3.63zm5.762 0c0-1.875.25-3.295.75-4.25.483-.966 1.21-1.454 2.165-1.454a2.21 2.21 0 011.994 1.176c.591.943.892 2.455.892 4.528 0 1.864-.238 3.273-.721 4.239-.495.977-1.227 1.455-2.182 1.455-.858 0-1.528-.421-2.09-1.29-.53-.841-.808-2.307-.808-4.404zm1.131 0c0 1.807.165 3.029.506 3.654.34.608.772.909 1.29.909.51 0 .92-.313 1.272-.921.313-.63.472-1.84.472-3.642 0-1.806-.16-3.028-.483-3.653-.347-.608-.784-.92-1.324-.92-.477 0-.892.323-1.233.943-.34.619-.5 1.829-.5 3.63zm5.784 0c0-1.875.239-3.295.733-4.25.489-.966 1.21-1.454 2.182-1.454.835 0 1.494.386 1.983 1.176.602.943.898 2.455.898 4.528 0 1.864-.245 3.273-.74 4.239-.476.977-1.21 1.455-2.158 1.455-.852 0-1.551-.421-2.097-1.29-.54-.841-.801-2.307-.801-4.404zm1.12 0c0 1.807.164 3.029.5 3.654.34.608.772.909 1.306.909.495 0 .898-.313 1.239-.921.335-.63.5-1.84.5-3.642 0-1.806-.165-3.028-.5-3.653-.341-.608-.79-.92-1.313-.92-.494 0-.903.323-1.233.943-.335.619-.5 1.829-.5 3.63zm5.766 0c0-1.875.256-3.295.75-4.25.483-.966 1.216-1.454 2.17-1.454.842 0 1.518.386 2.007 1.176.59.943.88 2.455.88 4.528 0 1.864-.238 3.273-.733 4.239-.483.977-1.21 1.455-2.17 1.455-.858 0-1.529-.421-2.085-1.29-.54-.841-.819-2.307-.819-4.404zm1.137 0c0 1.807.159 3.029.5 3.654.34.608.784.909 1.3.909.49 0 .904-.313 1.245-.921.335-.63.512-1.84.512-3.642 0-1.806-.188-3.028-.523-3.653-.341-.608-.773-.92-1.307-.92-.483 0-.898.323-1.227.943-.347.619-.5 1.829-.5 3.63zm5.784 0c0-1.875.244-3.295.727-4.25.5-.966 1.222-1.454 2.182-1.454.846 0 1.506.386 2 1.176.59.943.875 2.455.875 4.528 0 1.864-.239 3.273-.727 4.239-.483.977-1.205 1.455-2.154 1.455-.858 0-1.568-.421-2.09-1.29-.54-.841-.813-2.307-.813-4.404zm1.12 0c0 1.807.158 3.029.5 3.654.329.608.76.909 1.3.909.489 0 .904-.313 1.25-.921.33-.63.506-1.84.506-3.642 0-1.806-.176-3.028-.506-3.653-.346-.608-.79-.92-1.312-.92-.506 0-.904.323-1.239.943-.335.619-.5 1.829-.5 3.63zm5.772 0c0-1.875.244-3.295.744-4.25.489-.966 1.205-1.454 2.17-1.454a2.273 2.273 0 012.011 1.176c.586.943.882 2.455.882 4.528 0 1.864-.228 3.273-.728 4.239-.5.977-1.221 1.455-2.181 1.455-.836 0-1.546-.421-2.08-1.29-.545-.841-.818-2.307-.818-4.404zm1.13 0c0 1.807.143 3.029.506 3.654.324.608.767.909 1.301.909.489 0 .91-.313 1.245-.921.34-.63.505-1.84.505-3.642 0-1.806-.164-3.028-.511-3.653-.33-.608-.778-.92-1.307-.92-.5 0-.915.323-1.238.943-.358.619-.5 1.829-.5 3.63zm5.785 0c0-1.875.244-3.295.721-4.25.495-.966 1.233-1.454 2.182-1.454.841 0 1.523.386 2 1.176.597.943.886 2.455.886 4.528 0 1.864-.238 3.273-.715 4.239-.5.977-1.222 1.455-2.182 1.455-.841 0-1.54-.421-2.085-1.29-.546-.841-.807-2.307-.807-4.404zm1.113 0c0 1.807.165 3.029.5 3.654.341.608.762.909 1.307.909.494 0 .909-.313 1.239-.921.335-.63.505-1.84.505-3.642 0-1.806-.17-3.028-.505-3.653-.341-.608-.784-.92-1.307-.92-.489 0-.898.323-1.25.943-.324.619-.489 1.829-.489 3.63zm5.779 0c0-1.875.25-3.295.744-4.25.489-.966 1.205-1.454 2.176-1.454.83 0 1.5.386 1.989 1.176.596.943.886 2.455.886 4.528 0 1.864-.233 3.273-.727 4.239-.5.977-1.222 1.455-2.176 1.455-.841 0-1.54-.421-2.08-1.29-.551-.841-.812-2.307-.812-4.404zm1.119 0c0 1.807.165 3.029.511 3.654.336.608.767.909 1.296.909.506 0 .92-.313 1.244-.921.341-.63.506-1.84.506-3.642 0-1.806-.165-3.028-.506-3.653-.335-.608-.767-.92-1.312-.92-.483 0-.898.323-1.233.943-.336.619-.506 1.829-.506 3.63zm5.784 0c0-1.875.25-3.295.739-4.25.488-.966 1.221-1.454 2.176-1.454.835 0 1.511.386 2 1.176.596.943.881 2.455.881 4.528 0 1.864-.245 3.273-.722 4.239-.506.977-1.199 1.455-2.176 1.455-.852 0-1.546-.421-2.085-1.29-.54-.841-.813-2.307-.813-4.404zm1.131 0c0 1.807.165 3.029.488 3.654.353.608.779.909 1.302.909.522 0 .926-.313 1.255-.921.341-.63.523-1.84.523-3.642 0-1.806-.182-3.028-.534-3.653-.318-.608-.756-.92-1.301-.92-.489 0-.898.323-1.245.943-.329.619-.488 1.829-.488 3.63zm9.886 5.5h-1.096v-8.733a6.746 6.746 0 01-2.177 1.654v-1.318a7.003 7.003 0 001.591-1.307 4.77 4.77 0 00.966-1.5h.71v11.204h.006z" fill="#5D5326"/><path d="M73.254 146.171c-34.108-4.83-43.147-1.944-40.522 3.829h168.38c5.773 0 10.438-4.926 10.438-10.989v-8.147c-17.818 8.659-64.301 25.79-138.296 15.307z" fill="#D19129"/><path d="M10.449 149.995h123.869c-11.631-2.455-26.716-5.949-46.136-10.932A177.69 177.69 0 000 138.955v.057c0 6.056 4.676 10.983 10.449 10.983z" fill="url(#paint20_linear)"/><path d="M21.357 64.636H43.72a5.766 5.766 0 015.772 5.773v19.5a5.763 5.763 0 01-5.773 5.773H21.358a5.754 5.754 0 01-5.767-5.773v-19.5a5.754 5.754 0 015.767-5.773z" fill="url(#paint21_linear)"/><path d="M43.714 64.392H21.356c-3.318 0-6.023 2.699-6.023 6.017v19.5c0 3.318 2.705 6.017 6.023 6.017H43.72a6.022 6.022 0 006.011-6.017v-19.5a6.023 6.023 0 00-6.017-6.017zm5.546 6.017v1.057h-7.5a4.495 4.495 0 00-1.426 8.756 4.471 4.471 0 10-.012 8.488 4.488 4.488 0 00-2.29 6.728H26.044a4.488 4.488 0 00-2.301-6.728 4.484 4.484 0 000-8.488 4.505 4.505 0 000-8.512 4.484 4.484 0 002.216-6.835h17.76a5.535 5.535 0 015.54 5.534zm-7.5 9.551c-2.2 0-4.017-1.795-4.017-4.005s1.818-4.006 4.017-4.006h7.5v8.011h-7.5zm7.5.489v8.011h-7.5c-2.21 0-4.017-1.795-4.017-4.005s1.818-4.006 4.017-4.006h7.5zm-26.96 0h.022c2.199.023 4 1.795 4 4.006a4.01 4.01 0 01-4 4.005h-6.517v-8.01H22.3zm-6.495-.489v-8.01H22.3a4.011 4.011 0 01.023 8.011h-6.517zm5.551-15.09h4c.58.698.966 1.596.966 2.585A4.023 4.023 0 0122.3 71.46h-6.494v-1.056c0-3.052 2.489-5.535 5.551-5.535zm-5.55 25.033v-.954h6.516c2.199 0 4 1.795 4 4.006-.01.9-.318 1.77-.875 2.477h-4.09a5.545 5.545 0 01-5.552-5.529zm27.908 5.529h-5.09a3.966 3.966 0 01-.881-2.477c0-2.21 1.806-4.006 4.017-4.006h7.5v.954a5.54 5.54 0 01-5.546 5.529z" fill="#B8B58F"/><defs><linearGradient id="paint0_linear" x1="200.472" y1="41.657" x2="63.561" y2="170.977" gradientUnits="userSpaceOnUse"><stop stop-color="#E7C124"/><stop offset=".543" stop-color="#FFE80C"/><stop offset="1" stop-color="#DFBB20"/></linearGradient><linearGradient id="paint1_linear" x1="233.568" y1="130.42" x2="-43.903" y2="130.42" gradientUnits="userSpaceOnUse"><stop stop-color="#DFBB20"/><stop offset=".5" stop-color="#FFE80C"/><stop offset="1" stop-color="#E6BD21"/></linearGradient><linearGradient id="paint2_linear" x1="233.575" y1="144.904" x2="-43.903" y2="144.904" gradientUnits="userSpaceOnUse"><stop stop-color="#DFBB20"/><stop offset=".5" stop-color="#FFE80C"/><stop offset="1" stop-color="#E6BD21"/></linearGradient><linearGradient id="paint3_linear" x1="233.568" y1="137.659" x2="-43.903" y2="137.659" gradientUnits="userSpaceOnUse"><stop stop-color="#DFBB20"/><stop offset=".5" stop-color="#FFE80C"/><stop offset="1" stop-color="#E6BD21"/></linearGradient><linearGradient id="paint4_linear" x1="233.568" y1="115.937" x2="-43.903" y2="115.937" gradientUnits="userSpaceOnUse"><stop stop-color="#DFBB20"/><stop offset=".5" stop-color="#FFE80C"/><stop offset="1" stop-color="#E6BD21"/></linearGradient><linearGradient id="paint5_linear" x1="233.568" y1="108.699" x2="-43.903" y2="108.699" gradientUnits="userSpaceOnUse"><stop stop-color="#DFBB20"/><stop offset=".5" stop-color="#FFE80C"/><stop offset="1" stop-color="#E6BD21"/></linearGradient><linearGradient id="paint6_linear" x1="233.568" y1="101.449" x2="-43.903" y2="101.449" gradientUnits="userSpaceOnUse"><stop stop-color="#DFBB20"/><stop offset=".5" stop-color="#FFE80C"/><stop offset="1" stop-color="#E6BD21"/></linearGradient><linearGradient id="paint7_linear" x1="233.568" y1="94.21" x2="-43.903" y2="94.21" gradientUnits="userSpaceOnUse"><stop stop-color="#DFBB20"/><stop offset=".5" stop-color="#FFE80C"/><stop offset="1" stop-color="#E6BD21"/></linearGradient><linearGradient id="paint8_linear" x1="233.568" y1="86.972" x2="-43.903" y2="86.972" gradientUnits="userSpaceOnUse"><stop stop-color="#DFBB20"/><stop offset=".5" stop-color="#FFE80C"/><stop offset="1" stop-color="#E6BD21"/></linearGradient><linearGradient id="paint9_linear" x1="233.568" y1="79.722" x2="-43.903" y2="79.722" gradientUnits="userSpaceOnUse"><stop stop-color="#DFBB20"/><stop offset=".5" stop-color="#FFE80C"/><stop offset="1" stop-color="#E6BD21"/></linearGradient><linearGradient id="paint10_linear" x1="233.568" y1="72.483" x2="-43.903" y2="72.483" gradientUnits="userSpaceOnUse"><stop stop-color="#DFBB20"/><stop offset=".5" stop-color="#FFE80C"/><stop offset="1" stop-color="#E6BD21"/></linearGradient><linearGradient id="paint11_linear" x1="233.568" y1="65.233" x2="-43.903" y2="65.233" gradientUnits="userSpaceOnUse"><stop stop-color="#DFBB20"/><stop offset=".5" stop-color="#FFE80C"/><stop offset="1" stop-color="#E6BD21"/></linearGradient><linearGradient id="paint12_linear" x1="233.568" y1="58" x2="-43.903" y2="58" gradientUnits="userSpaceOnUse"><stop stop-color="#DFBB20"/><stop offset=".5" stop-color="#FFE80C"/><stop offset="1" stop-color="#E6BD21"/></linearGradient><linearGradient id="paint13_linear" x1="233.568" y1="50.761" x2="-43.903" y2="50.761" gradientUnits="userSpaceOnUse"><stop stop-color="#DFBB20"/><stop offset=".5" stop-color="#FFE80C"/><stop offset="1" stop-color="#E6BD21"/></linearGradient><linearGradient id="paint14_linear" x1="233.568" y1="43.517" x2="-43.903" y2="43.517" gradientUnits="userSpaceOnUse"><stop stop-color="#DFBB20"/><stop offset=".5" stop-color="#FFE80C"/><stop offset="1" stop-color="#E6BD21"/></linearGradient><linearGradient id="paint15_linear" x1="233.568" y1="36.273" x2="-43.903" y2="36.273" gradientUnits="userSpaceOnUse"><stop stop-color="#DFBB20"/><stop offset=".5" stop-color="#FFE80C"/><stop offset="1" stop-color="#E6BD21"/></linearGradient><linearGradient id="paint16_linear" x1="233.568" y1="29.029" x2="-43.903" y2="29.029" gradientUnits="userSpaceOnUse"><stop stop-color="#DFBB20"/><stop offset=".5" stop-color="#FFE80C"/><stop offset="1" stop-color="#E6BD21"/></linearGradient><linearGradient id="paint17_linear" x1="233.568" y1="21.795" x2="-43.903" y2="21.795" gradientUnits="userSpaceOnUse"><stop stop-color="#DFBB20"/><stop offset=".5" stop-color="#FFE80C"/><stop offset="1" stop-color="#E6BD21"/></linearGradient><linearGradient id="paint18_linear" x1="233.592" y1="14.54" x2="-43.902" y2="14.54" gradientUnits="userSpaceOnUse"><stop stop-color="#DFBB20"/><stop offset=".5" stop-color="#FFE80C"/><stop offset="1" stop-color="#E6BD21"/></linearGradient><linearGradient id="paint19_linear" x1="233.568" y1="123.176" x2="-43.903" y2="123.176" gradientUnits="userSpaceOnUse"><stop stop-color="#DFBB20"/><stop offset=".5" stop-color="#FFE80C"/><stop offset="1" stop-color="#E6BD21"/></linearGradient><linearGradient id="paint20_linear" x1="64.102" y1="160.614" x2="69.932" y2="129.818" gradientUnits="userSpaceOnUse"><stop stop-color="#006CA6"/><stop offset=".518" stop-color="#0090C6"/><stop offset="1" stop-color="#006BA4"/></linearGradient><linearGradient id="paint21_linear" x1="56.427" y1="101.842" x2="27.077" y2="71.381" gradientUnits="userSpaceOnUse"><stop stop-color="#D0CABF"/><stop offset="1" stop-color="#EFEADB"/></linearGradient></defs></svg>