<?xml version="1.0" encoding="UTF-8" standalone="no"?>
<!-- Created with Inkscape (http://www.inkscape.org/) -->

<svg
   width="1000"
   height="290.79199"
   viewBox="0 0 264.58333 76.938715"
   version="1.1"
   id="svg312"
   xml:space="preserve"
   inkscape:version="1.2.2 (732a01da63, 2022-12-09)"
   sodipodi:docname="Mercado Libre.svg"
   xmlns:inkscape="http://www.inkscape.org/namespaces/inkscape"
   xmlns:sodipodi="http://sodipodi.sourceforge.net/DTD/sodipodi-0.dtd"
   xmlns="http://www.w3.org/2000/svg"
   xmlns:svg="http://www.w3.org/2000/svg"
   xmlns:rdf="http://www.w3.org/1999/02/22-rdf-syntax-ns#"
   xmlns:cc="http://creativecommons.org/ns#"
   xmlns:dc="http://purl.org/dc/elements/1.1/"><title
     id="title493">Mercado Libre Logo</title><sodipodi:namedview
     id="namedview314"
     pagecolor="#ffffff"
     bordercolor="#666666"
     borderopacity="1.0"
     inkscape:showpageshadow="2"
     inkscape:pageopacity="0.0"
     inkscape:pagecheckerboard="0"
     inkscape:deskcolor="#d1d1d1"
     inkscape:document-units="px"
     showgrid="false"
     inkscape:zoom="0.57953392"
     inkscape:cx="469.34267"
     inkscape:cy="174.27798"
     inkscape:window-width="1366"
     inkscape:window-height="705"
     inkscape:window-x="-8"
     inkscape:window-y="-8"
     inkscape:window-maximized="1"
     inkscape:current-layer="layer1" /><defs
     id="defs309"><style
       id="style859">.cls-1{fill:#2d3277}.cls-3{fill:#fff}</style></defs><g
     inkscape:label="Capa 1"
     inkscape:groupmode="layer"
     id="layer1"
     transform="translate(-49.875861,-176.64576)"><g
       id="surface1"
       transform="matrix(1.889881,0,0,1.889881,55.5455,175.435)"
       style="stroke-width:0.14"><path
         style="fill:#283373;fill-opacity:1;fill-rule:nonzero;stroke:none;stroke-width:0.14"
         d="M 49.210938,20.070312 C 49.210938,11.300781 38.308594,4.140625 24.859375,4.140625 11.398438,4.148438 0.5,11.300781 0.5,20.070312 c 0,0.230469 0,0.851563 0,0.929688 0,9.308594 9.53125,16.851562 24.351562,16.851562 14.910157,0 24.347657,-7.542968 24.347657,-16.851562 v -0.929688 z m 0,0"
         id="path401" /><path
         style="fill:#ffcf00;fill-opacity:1;fill-rule:nonzero;stroke:none;stroke-width:0.14"
         d="m 48.269531,20.070312 c 0,8.269532 -10.480469,14.980469 -23.410156,14.980469 -12.929687,0 -23.417969,-6.710937 -23.417969,-14.980469 0,-8.269531 10.480469,-14.980468 23.410156,-14.980468 12.929688,0 23.417969,6.699218 23.417969,14.980468"
         id="path403" /><path
         style="fill:#ffffff;fill-opacity:1;fill-rule:nonzero;stroke:none;stroke-width:0.14"
         d="m 17.078125,15.339844 c -0.0078,0.01953 -0.25,0.269531 -0.08984,0.460937 0.371094,0.46875 1.511719,0.738281 2.660157,0.480469 0.691406,-0.152344 1.570312,-0.859375 2.421874,-1.53125 0.917969,-0.730469 1.839844,-1.46875 2.757813,-1.761719 0.980469,-0.308593 1.601563,-0.179687 2.023437,-0.04687 0.449219,0.136719 0.988282,0.429688 1.839844,1.070313 1.597656,1.199219 8.039063,6.828125 9.160156,7.796875 C 38.75,21.410156 42.730469,19.691406 48.140625,18.5 47.671875,15.609375 45.910156,12.96875 43.25,10.808594 c -3.710938,1.5625 -8.25,2.371094 -12.679688,0.210937 -0.01953,-0.0078 -2.421874,-1.148437 -4.789062,-1.089843 -3.519531,0.082031 -5.042969,1.601562 -6.660156,3.21875 z m 0,0"
         id="path405" /><path
         style="fill:#ffffff;fill-opacity:1;fill-rule:nonzero;stroke:none;stroke-width:0.14"
         d="m 37.589844,22.421875 c -0.07813,-0.07031 -7.570313,-6.632813 -9.269532,-7.910156 -0.980468,-0.742188 -1.53125,-0.933594 -2.101562,-1 -0.296875,-0.04297 -0.707031,0.01953 -1,0.09766 -0.789062,0.210937 -1.820312,0.910156 -2.738281,1.628906 C 21.53125,16 20.628906,16.710938 19.800781,16.898438 c -1.0625,0.242187 -2.359375,-0.03906 -2.949219,-0.4375 -0.242187,-0.160157 -0.410156,-0.351563 -0.492187,-0.539063 -0.21875,-0.511719 0.179687,-0.910156 0.25,-0.980469 l 2.070313,-2.242187 c 0.242187,-0.238281 0.480468,-0.480469 0.730468,-0.71875 -0.671875,0.08984 -1.289062,0.257812 -1.890625,0.417969 -0.75,0.210937 -1.46875,0.410156 -2.199219,0.410156 -0.300781,0 -1.941406,-0.269532 -2.25,-0.347656 -1.871093,-0.511719 -3.519531,-1.011719 -5.96875,-2.160157 -2.941406,2.1875 -4.910156,4.929688 -5.480468,7.9375 0.417968,0.113281 1.097656,0.3125 1.390625,0.382813 6.660156,1.480468 8.726562,3.007812 9.109375,3.320312 0.410156,-0.453125 0.988281,-0.742187 1.648437,-0.742187 0.742188,0 1.402344,0.371093 1.800781,0.941406 0.378907,-0.300781 0.910157,-0.5625 1.589844,-0.5625 0.308594,0 0.628906,0.0625 0.949219,0.171875 0.75,0.261719 1.140625,0.761719 1.339844,1.210938 0.25,-0.109376 0.5625,-0.199219 0.929687,-0.199219 0.359375,0 0.730469,0.07813 1.109375,0.238281 1.230469,0.53125 1.421875,1.730469 1.3125,2.640625 0.08984,-0.01172 0.179688,-0.01172 0.269531,-0.01172 1.460938,0 2.640626,1.179688 2.640626,2.640625 0,0.449219 -0.121094,0.871094 -0.320313,1.25 0.398437,0.21875 1.410156,0.730469 2.289063,0.609375 0.710937,-0.08984 0.980468,-0.328125 1.070312,-0.46875 0.07031,-0.08984 0.140625,-0.199218 0.07031,-0.28125 l -1.878906,-2.089844 c 0,0 -0.3125,-0.289062 -0.210937,-0.410156 0.109375,-0.117187 0.300781,0.05078 0.429687,0.160156 0.960938,0.800782 2.121094,2 2.121094,2 0.01953,0.01172 0.09766,0.171876 0.527344,0.242188 0.371094,0.07031 1.03125,0.02734 1.480468,-0.351562 0.121094,-0.08984 0.230469,-0.210938 0.332032,-0.328126 -0.01172,0.0078 -0.01172,0.0078 -0.01953,0.01953 0.476563,-0.609375 -0.05078,-1.242188 -0.05078,-1.242188 l -2.191406,-2.457031 c 0,0 -0.308594,-0.292969 -0.210937,-0.410156 0.101562,-0.101563 0.300781,0.04687 0.429687,0.167969 0.691406,0.582031 1.683594,1.570312 2.621094,2.492187 0.179687,0.128906 1.011719,0.648437 2.101562,-0.07031 0.660157,-0.441406 0.800781,-0.972656 0.777344,-1.371093 -0.04687,-0.53125 -0.457031,-0.910157 -0.457031,-0.910157 l -3,-3.011718 c 0,0 -0.320313,-0.269532 -0.199219,-0.410156 0.08984,-0.117188 0.296875,0.05078 0.429687,0.160156 0.949219,0.800781 3.539063,3.171875 3.539063,3.171875 0.03906,0.03125 0.929687,0.660156 2.03125,-0.03906 0.386719,-0.25 0.648437,-0.632812 0.667969,-1.070312 0.03906,-0.75 -0.5,-1.199219 -0.5,-1.199219"
         id="path407" /><path
         style="fill:#ffffff;fill-opacity:1;fill-rule:nonzero;stroke:none;stroke-width:0.14"
         d="m 23.058594,26.238281 c -0.457032,-0.0078 -0.96875,0.273438 -1.039063,0.230469 -0.03906,-0.01953 0.03125,-0.207031 0.07031,-0.320312 0.03906,-0.109376 0.660156,-1.949219 -0.828125,-2.589844 -1.140625,-0.488282 -1.839844,0.0625 -2.082031,0.3125 -0.05859,0.05859 -0.08984,0.05859 -0.101563,-0.01953 -0.01953,-0.332031 -0.167969,-1.230468 -1.15625,-1.53125 -1.410156,-0.429687 -2.3125,0.550782 -2.542969,0.910157 -0.09766,-0.800781 -0.777344,-1.429688 -1.609375,-1.429688 -0.898437,0 -1.628906,0.730469 -1.640625,1.628907 0,0.898437 0.730469,1.628906 1.632813,1.628906 0.4375,0 0.839843,-0.167969 1.128906,-0.457032 0.0078,0.0078 0.0078,0.01953 0.0078,0.05859 -0.07031,0.398438 -0.199219,1.871094 1.339843,2.46875 0.621094,0.242188 1.140625,0.0625 1.582031,-0.238281 0.128907,-0.08984 0.148438,-0.05078 0.128907,0.07031 -0.05859,0.378906 0.01172,1.1875 1.152343,1.648437 0.859376,0.351563 1.367188,-0.0078 1.707032,-0.320313 C 20.960938,28.160156 21,28.179688 21,28.378906 c 0.03906,1.089844 0.949219,1.960938 2.050781,1.960938 1.140625,0 2.058594,-0.917969 2.058594,-2.050782 0,-1.128906 -0.917969,-2.039062 -2.050781,-2.050781"
         id="path409" /><path
         style="fill:#283373;fill-opacity:1;fill-rule:nonzero;stroke:none;stroke-width:0.14"
         d="m 37.878906,21.628906 c -2.308594,-2.019531 -7.648437,-6.660156 -9.097656,-7.738281 -0.832031,-0.621094 -1.390625,-0.949219 -1.882812,-1.101563 -0.21875,-0.07031 -0.527344,-0.140624 -0.929688,-0.140624 -0.367188,0 -0.757812,0.07031 -1.179688,0.203124 -0.929687,0.296876 -1.867187,1.039063 -2.769531,1.75 l -0.05078,0.03906 c -0.839844,0.667969 -1.707031,1.359375 -2.359375,1.5 -0.289063,0.05859 -0.578125,0.09766 -0.871094,0.09766 -0.726562,0 -1.398437,-0.207031 -1.636719,-0.527343 -0.04297,-0.05078 -0.01172,-0.140626 0.07813,-0.261719 l 0.01172,-0.01953 2.027344,-2.191407 c 1.589844,-1.589843 3.089844,-3.089843 6.5625,-3.167969 0.05859,0 0.117188,0 0.167969,0 2.152343,0 4.3125,0.96875 4.550781,1.078126 2.019531,0.992187 4.101562,1.492187 6.199219,1.492187 2.179687,0 4.441406,-0.539063 6.8125,-1.628906 -0.261726,-0.222659 -0.542976,-0.441409 -0.82032,-0.652346 -2.082031,0.902344 -4.0625,1.359375 -5.980468,1.359375 -1.949219,0 -3.910157,-0.46875 -5.800782,-1.398438 -0.101562,-0.05078 -2.480468,-1.171874 -4.949218,-1.171874 -0.0625,0 -0.132813,0 -0.199219,0 -2.910157,0.070312 -4.542969,1.101562 -5.652344,2 -1.070313,0.03125 -1.988281,0.28125 -2.820313,0.511718 -0.730468,0.199219 -1.367187,0.378906 -1.980468,0.378906 -0.25,0 -0.707032,-0.01953 -0.75,-0.01953 C 13.851562,12 10.269531,11.121094 7.421875,10.039062 7.128906,10.25 6.851562,10.460938 6.578125,10.671875 c 2.972656,1.21875 6.59375,2.15625 7.742187,2.238281 0.320313,0.01953 0.660157,0.05859 1,0.05859 0.757813,0 1.507813,-0.207031 2.238282,-0.417969 0.429687,-0.121093 0.910156,-0.25 1.410156,-0.351562 -0.128906,0.128906 -0.269531,0.261719 -0.398438,0.402343 l -2.058593,2.226563 c -0.160157,0.160156 -0.523438,0.601563 -0.28125,1.140625 0.08984,0.222656 0.28125,0.429688 0.539062,0.601562 0.492188,0.328126 1.371094,0.558594 2.191407,0.558594 0.308593,0 0.597656,-0.02734 0.867187,-0.08984 0.871094,-0.1875 1.773437,-0.917968 2.730469,-1.679687 C 23.328125,14.75 24.421875,13.980469 25.25,13.75 c 0.230469,-0.05859 0.519531,-0.101562 0.75,-0.101562 0.07031,0 0.128906,0 0.191406,0.01172 0.546875,0.07031 1.078125,0.261719 2.027344,0.96875 1.691406,1.269532 9.203125,7.832032 9.269531,7.902344 0,0 0.480469,0.417969 0.453125,1.097656 -0.01953,0.382813 -0.230468,0.722656 -0.601562,0.960938 -0.320313,0.199218 -0.648438,0.308594 -0.980469,0.308594 -0.5,0 -0.847656,-0.238282 -0.871094,-0.25 -0.02734,-0.01953 -2.597656,-2.378907 -3.539062,-3.167969 -0.148438,-0.121094 -0.300781,-0.242188 -0.4375,-0.242188 -0.08203,0 -0.152344,0.03125 -0.203125,0.08984 -0.148438,0.183594 0.01953,0.441406 0.210937,0.601563 l 3,3.019531 c 0,0 0.371094,0.351562 0.410157,0.8125 0.01953,0.5 -0.21875,0.917969 -0.710938,1.238281 -0.347656,0.230469 -0.707031,0.351562 -1.058594,0.351562 -0.460937,0 -0.78125,-0.210937 -0.859375,-0.261718 l -0.429687,-0.417969 c -0.792969,-0.773437 -1.601563,-1.582031 -2.191406,-2.070313 -0.140626,-0.121093 -0.300782,-0.230468 -0.449219,-0.230468 -0.07031,0 -0.140625,0.02734 -0.191407,0.07813 -0.07031,0.08203 -0.117187,0.210937 0.05078,0.441406 0.07031,0.08984 0.148437,0.167969 0.148437,0.167969 l 2.191407,2.460937 c 0.01953,0.01953 0.449218,0.539063 0.05078,1.050781 l -0.08203,0.101563 c -0.07031,0.06641 -0.136719,0.136719 -0.199219,0.199219 -0.371094,0.308594 -0.871094,0.339844 -1.070313,0.339844 -0.109375,0 -0.207031,-0.01172 -0.300781,-0.03125 C 29.609375,29.140625 29.46875,29.078125 29.398438,29 l -0.02734,-0.03125 c -0.121094,-0.117188 -1.222656,-1.25 -2.140625,-2.007812 -0.121094,-0.101563 -0.269531,-0.230469 -0.429688,-0.230469 -0.08203,0 -0.140625,0.03125 -0.199219,0.08984 -0.179687,0.199219 0.08984,0.488282 0.207032,0.601563 l 1.871094,2.058594 c 0,0.01953 -0.03125,0.05859 -0.07031,0.128906 -0.07031,0.08984 -0.289063,0.320313 -0.96875,0.402344 -0.08203,0.0078 -0.171875,0.01953 -0.25,0.01953 -0.699219,0 -1.441406,-0.339844 -1.832031,-0.542969 0.171875,-0.367187 0.269531,-0.777343 0.269531,-1.179687 0,-1.539063 -1.25,-2.789063 -2.789063,-2.789063 -0.02734,0 -0.07031,0 -0.09766,0 0.04687,-0.699219 -0.05078,-2.03125 -1.410156,-2.621093 -0.390625,-0.167969 -0.78125,-0.257813 -1.171875,-0.257813 -0.300781,0 -0.578125,0.05078 -0.847656,0.148437 -0.28125,-0.550781 -0.75,-0.949218 -1.363281,-1.160156 -0.339844,-0.117187 -0.667969,-0.179687 -1,-0.179687 -0.570313,0 -1.089844,0.171875 -1.558594,0.5 -0.449219,-0.558594 -1.121094,-0.890625 -1.828125,-0.890625 -0.621094,0 -1.222657,0.25 -1.660157,0.691406 C 11.519534,21.30859 9.210941,19.83984 3.039065,18.441402 2.738284,18.371092 2.050784,18.179684 1.628909,18.050777 1.558597,18.378902 1.511722,18.718746 1.468753,19.05859 c 0,0 1.140625,0.269531 1.359375,0.320312 6.3125,1.402344 8.390625,2.859375 8.742187,3.132813 -0.121093,0.289062 -0.179687,0.597656 -0.179687,0.910156 0,1.296875 1.058594,2.359375 2.359375,2.359375 0.148438,0 0.289062,-0.01172 0.429688,-0.04297 0.199218,0.960938 0.820312,1.691407 1.78125,2.0625 0.277343,0.109375 0.558593,0.160157 0.839843,0.160157 0.179688,0 0.359375,-0.01953 0.539063,-0.07031 0.179687,0.449219 0.582031,1.007813 1.46875,1.371094 0.3125,0.128906 0.621094,0.1875 0.929687,0.1875 0.25,0 0.492188,-0.03906 0.722657,-0.128907 0.429687,1.039063 1.4375,1.730469 2.578124,1.730469 0.75,0 1.472657,-0.300781 2,-0.851562 0.449219,0.25 1.402344,0.699219 2.359376,0.699219 0.121093,0 0.242187,-0.0078 0.363281,-0.01953 0.949219,-0.117187 1.398437,-0.488281 1.597656,-0.777344 0.03906,-0.05078 0.07031,-0.101562 0.101563,-0.160156 0.21875,0.05859 0.46875,0.117188 0.757812,0.117188 0.519531,0 1.019531,-0.179688 1.53125,-0.546875 0.5,-0.363281 0.851562,-0.871094 0.898438,-1.3125 0,-0.0078 0,-0.0078 0,-0.01953 0.171874,0.03125 0.339843,0.05078 0.511718,0.05078 0.539063,0 1.058594,-0.171875 1.570313,-0.5 0.96875,-0.640625 1.140625,-1.46875 1.121093,-2.011719 0.167969,0.04297 0.339844,0.05078 0.519532,0.05078 0.5,0 1,-0.148437 1.46875,-0.449219 0.601562,-0.378906 0.960937,-0.96875 1.019531,-1.660156 0.03906,-0.46875 -0.07813,-0.941406 -0.320313,-1.339844 1.632813,-0.699218 5.351563,-2.058593 9.730469,-3.050781 -0.03125,-0.339843 -0.07813,-0.679687 -0.140625,-1.007812 -5.308594,1.21875 -9.257812,2.929687 -10.25,3.367187 m -14.820312,8.570313 c -1.027344,0 -1.867188,-0.800781 -1.898438,-1.820313 0,-0.08984 -0.01172,-0.320312 -0.210937,-0.320312 -0.07813,0 -0.148438,0.05078 -0.230469,0.121094 -0.230469,0.210937 -0.507812,0.421874 -0.9375,0.421874 -0.191406,0 -0.402344,-0.04297 -0.621094,-0.132812 -1.089844,-0.4375 -1.101562,-1.1875 -1.058594,-1.488281 0.0078,-0.08203 0.01953,-0.160157 -0.04297,-0.230469 L 18,26.699219 h -0.07031 c -0.05859,0 -0.109376,0.01953 -0.191407,0.08203 -0.308593,0.21875 -0.617187,0.328125 -0.917969,0.328125 -0.171874,0 -0.339843,-0.03125 -0.519531,-0.09766 -1.429687,-0.5625 -1.320312,-1.910157 -1.25,-2.3125 0.0078,-0.07813 -0.01172,-0.148438 -0.0625,-0.1875 l -0.09766,-0.08203 -0.08984,0.07031 c -0.28125,0.269531 -0.640625,0.421875 -1.03125,0.421875 -0.820312,0 -1.488281,-0.671875 -1.488281,-1.492187 0,-0.820313 0.667969,-1.488282 1.488281,-1.480469 0.742188,0 1.371094,0.5625 1.46875,1.300781 l 0.05078,0.398438 0.222657,-0.339844 c 0.01953,-0.03906 0.628906,-0.949219 1.726562,-0.949219 0.210938,0 0.433594,0.03125 0.652344,0.101563 0.878906,0.269531 1.03125,1.070312 1.050781,1.398437 0.01953,0.191406 0.148438,0.199219 0.179688,0.199219 0.07813,0 0.128906,-0.04687 0.167968,-0.08984 0.171876,-0.167969 0.53125,-0.457031 1.089844,-0.457031 0.261719,0 0.53125,0.05859 0.820313,0.179687 1.402343,0.597656 0.761719,2.378906 0.761719,2.398438 -0.121094,0.289062 -0.132813,0.421875 -0.01172,0.5 L 22,26.621094 h 0.03906 c 0.0625,0 0.140626,-0.03125 0.269532,-0.07031 0.191406,-0.07031 0.480468,-0.160156 0.75,-0.160156 1.050781,0.0078 1.910156,0.871094 1.910156,1.910156 0,1.050781 -0.859375,1.898438 -1.910156,1.898438"
         id="path411" /><path
         style="fill:#283373;fill-opacity:1;fill-rule:nonzero;stroke:none;stroke-width:0.14"
         d="m 132.17969,9.929688 c -0.87891,-1.101563 -2.21094,-1.648438 -4,-1.648438 -1.78906,0 -3.1211,0.546875 -4,1.648438 -0.87891,1.101562 -1.32031,2.398437 -1.32031,3.898437 0,1.53125 0.4414,2.832031 1.32031,3.921875 0.8789,1.078125 2.21094,1.628906 4,1.628906 1.78906,0 3.12109,-0.539062 4,-1.628906 0.8789,-1.089844 1.32031,-2.390625 1.32031,-3.921875 0,-1.5 -0.44141,-2.796875 -1.32031,-3.898437 M 130,16.238281 c -0.42969,0.570313 -1.03906,0.851563 -1.82813,0.851563 -0.80078,0 -1.41015,-0.28125 -1.84374,-0.851563 -0.42969,-0.566406 -0.63672,-1.367187 -0.63672,-2.410156 0,-1.039063 0.20703,-1.847656 0.63672,-2.40625 0.43359,-0.5625 1.04296,-0.84375 1.84374,-0.84375 0.79688,0 1.40625,0.28125 1.82813,0.84375 0.42969,0.558594 0.64062,1.367187 0.64062,2.40625 0,1.042969 -0.21093,1.851563 -0.64062,2.410156"
         id="path413" /><path
         style="fill:#283373;fill-opacity:1;fill-rule:nonzero;stroke:none;stroke-width:0.14"
         d="m 109.71875,9 c -0.89062,-0.449219 -1.91016,-0.679688 -3.05859,-0.679688 -1.76172,0 -3.01172,0.460938 -3.73828,1.378907 -0.46094,0.589843 -0.71094,1.339843 -0.77344,2.25 h 2.64062 c 0.0625,-0.398438 0.19141,-0.71875 0.39063,-0.960938 0.26953,-0.316406 0.73047,-0.476562 1.39062,-0.476562 0.57813,0 1.03125,0.07813 1.32813,0.25 0.30078,0.160156 0.45312,0.457031 0.45312,0.886719 0,0.351562 -0.20312,0.613281 -0.58984,0.78125 -0.22266,0.101562 -0.58203,0.179687 -1.08984,0.242187 l -0.9336,0.117187 c -1.05859,0.132813 -1.86719,0.359376 -2.41015,0.671876 -1,0.578124 -1.5,1.5 -1.5,2.789062 0,0.988281 0.3125,1.761719 0.93359,2.289062 0.61719,0.539063 1.41016,0.769532 2.35937,0.8125 5.95704,0.269532 5.89844,-3.140624 5.94922,-3.851562 V 11.578125 C 111.05859,10.320312 110.60938,9.460938 109.71875,9 m -1.39062,5.960938 c -0.0195,0.910156 -0.27735,1.539062 -0.77735,1.890624 -0.5,0.347657 -1.05078,0.519532 -1.65234,0.519532 -0.37891,0 -0.69922,-0.101563 -0.95703,-0.3125 -0.26172,-0.207032 -0.39063,-0.546875 -0.39063,-1.007813 0,-0.519531 0.21094,-0.910156 0.64063,-1.160156 0.25781,-0.152344 0.66797,-0.269531 1.25781,-0.371094 l 0.62109,-0.121093 c 0.3086,-0.05859 0.55078,-0.117188 0.73047,-0.1875 0.17969,-0.07031 0.34766,-0.152344 0.52735,-0.261719 z m 0,0"
         id="path415" /><path
         style="fill:#283373;fill-opacity:1;fill-rule:nonzero;stroke:none;stroke-width:0.14"
         d="m 96.121094,10.660156 c 0.679687,0 1.179687,0.210938 1.507812,0.628906 0.222656,0.3125 0.359375,0.660157 0.410156,1.050782 h 2.941408 C 100.82031,10.859375 100.30078,9.820312 99.421875,9.230469 98.539062,8.648438 97.410156,8.351562 96.039062,8.351562 c -1.617187,0 -2.890624,0.5 -3.808593,1.488282 -0.921875,0.988281 -1.378907,2.378906 -1.378907,4.171875 0,1.578125 0.417969,2.867187 1.25,3.867187 0.828126,0.992188 2.128907,1.492188 3.898438,1.492188 1.769531,0 3.101562,-0.601563 4,-1.792969 0.55859,-0.738281 0.87891,-1.519531 0.94922,-2.347656 h -2.929689 c -0.05859,0.550781 -0.230469,0.988281 -0.507812,1.339843 -0.28125,0.339844 -0.761719,0.519532 -1.433594,0.519532 -0.949219,0 -1.597656,-0.429688 -1.9375,-1.300782 -0.191406,-0.460937 -0.28125,-1.078124 -0.28125,-1.839843 0,-0.800781 0.101563,-1.4375 0.28125,-1.929688 0.347656,-0.898437 1.007813,-1.359375 1.980469,-1.359375"
         id="path417" /><path
         style="fill:#283373;fill-opacity:1;fill-rule:nonzero;stroke:none;stroke-width:0.14"
         d="m 90.058594,8.359375 c -6.039063,0 -5.679688,5.351563 -5.679688,5.351563 v 5.429687 h 2.742188 v -5.101563 c 0,-0.828124 0.109375,-1.449218 0.308594,-1.859374 0.378906,-0.710938 1.109374,-1.070313 2.210937,-1.070313 0.07813,0 0.1875,0 0.328125,0.01172 0.132812,0.0078 0.28125,0.01953 0.460938,0.03906 v -2.78125 c -0.121094,-0.00781 -0.199219,-0.00781 -0.230469,-0.019531 -0.03906,0 -0.08984,0 -0.140625,0"
         id="path419" /><path
         style="fill:#283373;fill-opacity:1;fill-rule:nonzero;stroke:none;stroke-width:0.14"
         d="m 79.988281,16.300781 c -0.117187,0.160157 -0.238281,0.300781 -0.378906,0.410157 -0.390625,0.320312 -0.910156,0.417968 -1.53125,0.417968 -0.589844,0 -1.039063,-0.08984 -1.457031,-0.347656 -0.679688,-0.421875 -1.070313,-1.132812 -1.109375,-2.179688 h 7.589843 c 0.0078,-0.902343 -0.02344,-1.589843 -0.08984,-2.070312 C 82.878906,11.710938 82.609375,11 82.179688,10.378906 81.710938,9.679688 81.109375,9.160156 80.378906,8.839844 79.648438,8.519531 78.839844,8.351562 77.929688,8.351562 c -1.53125,0 -2.769532,0.476563 -3.71875,1.4375 C 73.25,10.75 72.769531,12.140625 72.769531,13.941406 c 0,1.929688 0.53125,3.320313 1.589844,4.167969 1.0625,0.851563 2.28125,1.28125 3.671875,1.28125 1.679688,0 2.988281,-0.511719 3.917969,-1.519531 0.5,-0.53125 0.820312,-1.0625 0.949219,-1.582032 h -2.910157 z m -3.679687,-5.101562 c 0.390625,-0.398438 0.929687,-0.589844 1.632812,-0.589844 0.636719,0 1.179688,0.191406 1.617188,0.5625 0.429687,0.367187 0.679687,0.917969 0.722656,1.636719 h -4.691406 c 0.08984,-0.679688 0.332031,-1.21875 0.71875,-1.609375"
         id="path421" /><path
         style="fill:#283373;fill-opacity:1;fill-rule:nonzero;stroke:none;stroke-width:0.14"
         d="m 71.671875,19.140625 h -2.5 v -6.3125 c 0,-0.578125 -0.191406,-1.949219 -1.84375,-1.949219 -1.097656,0 -1.898437,0.792969 -1.898437,1.949219 v 6.3125 h -2.507813 v -6.3125 c 0,-0.578125 -0.171875,-1.949219 -1.820313,-1.949219 -1.121093,0 -1.902343,0.792969 -1.902343,1.949219 v 6.3125 h -2.507813 v -6.25 c 0,-2.601563 1.730469,-4.570313 4.398438,-4.570313 1.332031,0 2.410156,0.558594 3.109375,1.449219 0.742187,-0.890625 1.839843,-1.449219 3.109375,-1.449219 2.730468,0 4.351562,1.890626 4.351562,4.570313 v 6.25 z m 0,0"
         id="path423" /><path
         style="fill:#283373;fill-opacity:1;fill-rule:nonzero;stroke:none;stroke-width:0.14"
         d="m 122.03906,5.070312 c 0,0 -2.75781,-0.289062 -2.75781,1.917969 V 9.929688 C 118.96875,9.441406 118.57813,9.058594 118.08984,8.78125 117.60156,8.5 117.03906,8.359375 116.41016,8.359375 c -1.3711,0 -2.46094,0.511719 -3.28125,1.53125 -0.82032,1.019531 -1.23047,2.488281 -1.23047,4.269531 0,1.539063 0.42187,2.808594 1.25,3.789063 0.83203,0.980469 2.46094,1.410156 3.91015,1.410156 5.05079,0 4.99219,-4.328125 4.99219,-4.328125 z M 118.75,16.269531 c -0.39844,0.570313 -0.98828,0.859375 -1.76172,0.859375 -0.76953,0 -1.34765,-0.289062 -1.71875,-0.867187 -0.3789,-0.582031 -0.57031,-1.421875 -0.57031,-2.382813 0,-0.890625 0.19141,-1.640625 0.5625,-2.238281 0.36719,-0.601563 0.95703,-0.902344 1.75,-0.902344 0.51953,0 0.97656,0.171875 1.37891,0.5 0.64062,0.550781 0.96093,1.53125 0.96093,2.800781 0.008,0.910157 -0.20312,1.652344 -0.60156,2.230469"
         id="path425" /><path
         style="fill:#283373;fill-opacity:1;fill-rule:nonzero;stroke:none;stroke-width:0.14"
         d="m 90.621094,32.238281 c -0.109375,0.160157 -0.242188,0.300781 -0.371094,0.410157 -0.390625,0.320312 -0.929688,0.429687 -1.539062,0.429687 -0.582032,0 -1.03125,-0.08984 -1.449219,-0.347656 -0.683594,-0.421875 -1.042969,-1.140625 -1.082031,-2.179688 h 7.519531 c 0.01172,-0.890625 -0.01953,-1.570312 -0.08984,-2.050781 -0.128906,-0.808594 -0.398437,-1.519531 -0.820313,-2.140625 -0.46875,-0.699219 -1.070312,-1.199219 -1.777343,-1.53125 -0.722657,-0.316406 -1.53125,-0.476563 -2.433594,-0.476563 -1.507813,0 -2.738281,0.476563 -3.6875,1.429688 -0.949219,0.957031 -1.421875,2.328125 -1.421875,4.109375 0,1.910156 0.519531,3.289063 1.582031,4.128906 1.050781,0.851563 2.257813,1.269531 3.640625,1.269531 1.660156,0 2.957032,-0.5 3.878906,-1.507812 0.5,-0.53125 0.808594,-1.050781 0.941407,-1.570312 H 90.621094 Z M 86.96875,27.179688 c 0.382812,-0.390626 0.921875,-0.589844 1.609375,-0.589844 0.640625,0 1.171875,0.191406 1.601563,0.558594 0.429687,0.371093 0.671874,0.910156 0.71875,1.632812 H 86.25 c 0.101562,-0.671875 0.339844,-1.203125 0.71875,-1.601562"
         id="path427" /><path
         style="fill:#283373;fill-opacity:1;fill-rule:nonzero;stroke:none;stroke-width:0.14"
         d="m 71.78125,24.390625 c -0.632812,0 -1.191406,0.140625 -1.679688,0.410156 -0.492187,0.277344 -0.890624,0.660157 -1.191406,1.148438 v -4.929688 c 0,0 -2.761718,-0.269531 -2.761718,1.96875 v 7.992188 c 0,0 -0.05859,4.328125 4.992187,4.328125 1.449219,0 3.078125,-0.429688 3.910156,-1.417969 0.828125,-0.980469 1.25,-2.25 1.25,-3.789063 0,-1.78125 -0.410156,-3.171874 -1.230469,-4.191406 -0.832031,-1.011718 -1.921874,-1.519531 -3.289062,-1.519531 m 1.128906,7.828125 c -0.378906,0.582031 -0.949218,0.859375 -1.71875,0.859375 -0.769531,0 -1.363281,-0.277344 -1.761718,-0.859375 -0.398438,-0.570312 -0.601563,-1.308594 -0.601563,-2.230469 0,-1.269531 0.320313,-2.179687 0.960937,-2.726562 0.402344,-0.332031 0.851563,-0.5 1.382813,-0.5 0.796875,0 1.378906,0.296875 1.75,0.898437 0.367187,0.601563 0.558594,1.351563 0.558594,2.238282 0,0.972656 -0.191407,1.742187 -0.570313,2.320312"
         id="path429" /><path
         style="fill:#283373;fill-opacity:1;fill-rule:nonzero;stroke:none;stroke-width:0.14"
         d="m 82.941406,24.378906 c -0.04297,0 -0.08203,0 -0.132812,0 -6.039063,0 -5.6875,5.351563 -5.6875,5.351563 v 5.347656 h 2.738281 v -5.007813 c 0,-0.839843 0.101563,-1.449218 0.320313,-1.851562 0.371093,-0.707031 1.109374,-1.070312 2.210937,-1.070312 0.07813,0 0.1875,0 0.320313,0.01172 0.128906,0.01172 0.289062,0.01953 0.460937,0.03906 v -2.789063 c -0.113281,-0.03125 -0.191406,-0.03125 -0.230469,-0.03125"
         id="path431" /><path
         style="fill:#283373;fill-opacity:1;fill-rule:nonzero;stroke:none;stroke-width:0.14"
         d="m 56.691406,22.988281 v 12.070313 h 2.570313 V 21.019531 c 0.0078,0 -2.570313,-0.109375 -2.570313,1.96875"
         id="path433" /><path
         style="fill:#283373;fill-opacity:1;fill-rule:nonzero;stroke:none;stroke-width:0.14"
         d="m 61.371094,21 h 2.75 v 2.730469 h -2.75 z m 0,0"
         id="path435" /><path
         style="fill:#283373;fill-opacity:1;fill-rule:nonzero;stroke:none;stroke-width:0.14"
         d="m 61.371094,24.660156 h 2.757812 v 10.410156 h -2.757812 z m 0,0"
         id="path437" /></g></g><metadata
     id="metadata491"><rdf:RDF><cc:Work
         rdf:about=""><dc:title>Mercado Libre Logo</dc:title><dc:subject><rdf:Bag><rdf:li>Mercado Libre</rdf:li><rdf:li>Logo</rdf:li><rdf:li>Logotipo</rdf:li><rdf:li>Handshake</rdf:li><rdf:li>Manos</rdf:li><rdf:li>Hands</rdf:li><rdf:li>Harabara</rdf:li><rdf:li>Font</rdf:li><rdf:li>Type</rdf:li><rdf:li>Tipografía</rdf:li></rdf:Bag></dc:subject></cc:Work></rdf:RDF></metadata></svg>
